<?xml version="1.0" encoding="UTF-8" standalone="no"?>
<!-- Generator: Adobe Illustrator 17.1.0, SVG Export Plug-In . SVG Version: 6.00 Build 0)  -->

<svg
   xmlns:dc="http://purl.org/dc/elements/1.1/"
   xmlns:cc="http://creativecommons.org/ns#"
   xmlns:rdf="http://www.w3.org/1999/02/22-rdf-syntax-ns#"
   xmlns:svg="http://www.w3.org/2000/svg"
   xmlns="http://www.w3.org/2000/svg"
   xmlns:sodipodi="http://sodipodi.sourceforge.net/DTD/sodipodi-0.dtd"
   xmlns:inkscape="http://www.inkscape.org/namespaces/inkscape"
   version="1.1"
   id="Layer_1"
   x="0px"
   y="0px"
   width="57.6px"
   height="57.6px"
   viewBox="0 0 57.6 57.6"
   enable-background="new 0 0 57.6 57.6"
   xml:space="preserve"
   inkscape:version="0.91 r13725"
   sodipodi:docname="tb6612.svg"><metadata
     id="metadata333"><rdf:RDF><cc:Work
         rdf:about=""><dc:format>image/svg+xml</dc:format><dc:type
           rdf:resource="http://purl.org/dc/dcmitype/StillImage" /></cc:Work></rdf:RDF></metadata><defs
     id="defs331" /><sodipodi:namedview
     pagecolor="#ffffff"
     bordercolor="#666666"
     borderopacity="1"
     objecttolerance="10"
     gridtolerance="10"
     guidetolerance="10"
     inkscape:pageopacity="0"
     inkscape:pageshadow="2"
     inkscape:window-width="1366"
     inkscape:window-height="719"
     id="namedview329"
     showgrid="false"
     inkscape:zoom="4.0972223"
     inkscape:cx="28.799999"
     inkscape:cy="28.799999"
     inkscape:window-x="0"
     inkscape:window-y="0"
     inkscape:window-maximized="1"
     inkscape:current-layer="breadboard" /><desc
     id="desc3">Fritzing breadboard generated by brd2svg</desc><g
     id="breadboard"><g
       id="icon"><path
         fill="#C62717"
         d="M0,57.6h57.6V0H0V57.6 M5.8,54c0-0.8,0.6-1.4,1.4-1.4s1.4,0.6,1.4,1.4c0,0.8-0.6,1.4-1.4,1.4    S5.8,54.8,5.8,54z M5.8,46.8c0-0.8,0.6-1.4,1.4-1.4s1.4,0.6,1.4,1.4c0,0.8-0.6,1.4-1.4,1.4S5.8,47.6,5.8,46.8z M5.8,39.6    c0-0.8,0.6-1.4,1.4-1.4s1.4,0.6,1.4,1.4C8.6,40.4,8,41,7.2,41S5.8,40.4,5.8,39.6z M5.8,32.4c0-0.8,0.6-1.4,1.4-1.4    s1.4,0.6,1.4,1.4c0,0.8-0.6,1.4-1.4,1.4S5.8,33.2,5.8,32.4z M5.8,25.2c0-0.8,0.6-1.4,1.4-1.4s1.4,0.6,1.4,1.4S8,26.6,7.2,26.6    S5.8,26,5.8,25.2L5.8,25.2z M5.8,18c0-0.8,0.6-1.4,1.4-1.4s1.4,0.6,1.4,1.4S8,19.4,7.2,19.4S5.8,18.8,5.8,18z M5.8,10.8    c0-0.8,0.6-1.4,1.4-1.4s1.4,0.6,1.4,1.4S8,12.2,7.2,12.2S5.8,11.6,5.8,10.8z M5.8,3.6c0-0.8,0.6-1.4,1.4-1.4s1.4,0.6,1.4,1.4    S8,5,7.2,5S5.8,4.4,5.8,3.6z M49,3.6c0-0.8,0.6-1.4,1.4-1.4c0.8,0,1.4,0.6,1.4,1.4S51.2,5,50.4,5C49.6,5,49,4.4,49,3.6z M49,10.8    c0-0.8,0.6-1.4,1.4-1.4c0.8,0,1.4,0.6,1.4,1.4s-0.6,1.4-1.4,1.4C49.6,12.2,49,11.6,49,10.8z M49,18c0-0.8,0.6-1.4,1.4-1.4    c0.8,0,1.4,0.6,1.4,1.4s-0.6,1.4-1.4,1.4C49.6,19.4,49,18.8,49,18z M49,25.2c0-0.8,0.6-1.4,1.4-1.4c0.8,0,1.4,0.6,1.4,1.4    s-0.6,1.4-1.4,1.4C49.6,26.6,49,26,49,25.2z M49,32.4c0-0.8,0.6-1.4,1.4-1.4c0.8,0,1.4,0.6,1.4,1.4c0,0.8-0.6,1.4-1.4,1.4    C49.6,33.8,49,33.2,49,32.4z M49,39.6c0-0.8,0.6-1.4,1.4-1.4c0.8,0,1.4,0.6,1.4,1.4c0,0.8-0.6,1.4-1.4,1.4    C49.6,41,49,40.4,49,39.6z M49,46.8c0-0.8,0.6-1.4,1.4-1.4c0.8,0,1.4,0.6,1.4,1.4c0,0.8-0.6,1.4-1.4,1.4    C49.6,48.2,49,47.6,49,46.8z M49,54c0-0.8,0.6-1.4,1.4-1.4c0.8,0,1.4,0.6,1.4,1.4c0,0.8-0.6,1.4-1.4,1.4C49.6,55.4,49,54.8,49,54z    "
         id="path7" /><g
         id="g9"><title
           id="title11">layer 21</title><g
           id="g13"
           transform="matrix(1.337404,0,0,1.337404,-12.807972,-16.004479)"><title
             id="title15">text:TB6612FNG</title><text
             transform="translate(19.8,50.04)"
             font-size="3.3408"
             id="text17"
             style="font-size:3.34080005px;font-family:OCRA;fill:#ffffff">TB6612FNG</text>
</g><g
           id="g25"><title
             id="title27">element:C1</title><g
             id="g29"><title
               id="title31">package:0402-CAP</title><line
               fill="none"
               stroke="#FFFFFF"
               stroke-width="1.152"
               stroke-linecap="round"
               x1="32.4"
               y1="17.9"
               x2="32.4"
               y2="18.1"
               id="line33" /></g></g><g
           id="g35"><title
             id="title37">element:C2</title><g
             id="g39"><title
               id="title41">package:0402-CAP</title><line
               fill="none"
               stroke="#FFFFFF"
               stroke-width="1.152"
               stroke-linecap="round"
               x1="25.2"
               y1="18.1"
               x2="25.2"
               y2="17.9"
               id="line43" /></g></g><g
           id="g45"><title
             id="title47">element:C3</title><g
             id="g49"><title
               id="title51">package:EIA3528</title><line
               fill="none"
               stroke="#FFFFFF"
               stroke-width="0.576"
               stroke-linecap="round"
               x1="31.4"
               y1="6.3"
               x2="36.2"
               y2="6.3"
               id="line53" /><line
               fill="none"
               stroke="#FFFFFF"
               stroke-width="0.576"
               stroke-linecap="round"
               x1="36.2"
               y1="6.3"
               x2="36.2"
               y2="15.2"
               id="line55" /><line
               fill="none"
               stroke="#FFFFFF"
               stroke-width="0.576"
               stroke-linecap="round"
               x1="36.2"
               y1="15.2"
               x2="31.4"
               y2="15.2"
               id="line57" /><line
               fill="none"
               stroke="#FFFFFF"
               stroke-width="0.576"
               stroke-linecap="round"
               x1="26"
               y1="6.4"
               x2="22.6"
               y2="6.4"
               id="line59" /><line
               fill="none"
               stroke="#FFFFFF"
               stroke-width="0.576"
               stroke-linecap="round"
               x1="22.6"
               y1="6.4"
               x2="21.4"
               y2="7.4"
               id="line61" /><line
               fill="none"
               stroke="#FFFFFF"
               stroke-width="0.576"
               stroke-linecap="round"
               x1="21.4"
               y1="7.4"
               x2="21.4"
               y2="14.3"
               id="line63" /><line
               fill="none"
               stroke="#FFFFFF"
               stroke-width="0.576"
               stroke-linecap="round"
               x1="21.4"
               y1="14.3"
               x2="22.6"
               y2="15.2"
               id="line65" /><line
               fill="none"
               stroke="#FFFFFF"
               stroke-width="0.576"
               stroke-linecap="round"
               x1="22.6"
               y1="15.2"
               x2="26"
               y2="15.2"
               id="line67" /><line
               fill="none"
               stroke="#FFFFFF"
               stroke-width="0.576"
               stroke-linecap="round"
               x1="22.6"
               y1="15.2"
               x2="26"
               y2="15.2"
               id="line69" /><line
               fill="none"
               stroke="#FFFFFF"
               stroke-width="0.576"
               stroke-linecap="round"
               x1="27.1"
               y1="14.5"
               x2="27.1"
               y2="7.2"
               id="line71" /></g></g><g
           id="g73"><title
             id="title75">element:JP5</title><g
             id="g77"><title
               id="title79">package:FIDUCIAL-1X2</title></g></g><g
           id="g81"><title
             id="title83">element:JP6</title><g
             id="g85"><title
               id="title87">package:FIDUCIAL-1X2</title></g></g><g
           id="g89"><title
             id="title91">element:U1</title><g
             id="g93"><title
               id="title95">package:SSOP24</title><line
               fill="none"
               stroke="#FFFFFF"
               stroke-width="0.576"
               stroke-linecap="round"
               x1="35.9"
               y1="20.4"
               x2="35.9"
               y2="44.4"
               id="line97" /><line
               fill="none"
               stroke="#FFFFFF"
               stroke-width="0.576"
               stroke-linecap="round"
               x1="35.9"
               y1="44.4"
               x2="21.7"
               y2="44.4"
               id="line99" /><line
               fill="none"
               stroke="#FFFFFF"
               stroke-width="0.576"
               stroke-linecap="round"
               x1="21.7"
               y1="44.4"
               x2="21.7"
               y2="20.4"
               id="line101" /><line
               fill="none"
               stroke="#FFFFFF"
               stroke-width="0.576"
               stroke-linecap="round"
               x1="21.7"
               y1="20.4"
               x2="35.9"
               y2="20.4"
               id="line103" /><circle
               fill="none"
               stroke="#FFFFFF"
               stroke-width="0.576"
               cx="23.8"
               cy="22.3"
               r="0.6"
               id="circle105" /></g></g></g><g
         id="g109"><g
           id="g111"><rect
             x="22.4"
             y="7"
             fill="#303030"
             width="12.7"
             height="7.1"
             id="rect113" /><rect
             x="22.4"
             y="7"
             fill="#E5E3E3"
             width="1.4"
             height="7.1"
             id="rect115" /></g><g
           transform="matrix(2.57889e-06, 1, -1, 2.57889e-06, 35.224, -13.1073)"
           id="g117"><g
             id="g119"><g
               transform="matrix(0, -1, 1, 0, -9.35719, 46.2303)"
               id="g121"><rect
                 id="connector25pad"
                 x="28.4"
                 y="49.6"
                 fill="#888E8A"
                 width="4"
                 height="1" /></g><g
               transform="matrix(0, -1, 1, 0, -24.0973, 60.9704)"
               id="g124"><rect
                 id="connector33pad"
                 x="43.1"
                 y="79"
                 fill="#888E8A"
                 width="4"
                 height="1" /></g><g
               transform="matrix(0, -1, 1, 0, 9.52726, 68.7997)"
               id="g127"><rect
                 id="connector41pad"
                 x="70.5"
                 y="32.6"
                 fill="#888E8A"
                 width="4"
                 height="1" /></g><g
               transform="matrix(0, -1, 1, 0, -16.7273, 53.6003)"
               id="g130"><rect
                 id="connector29pad"
                 x="35.7"
                 y="64.3"
                 fill="#888E8A"
                 width="4"
                 height="1" /></g><g
               transform="matrix(0, -1, 1, 0, 2.15716, 76.1695)"
               id="g133"><rect
                 id="connector37pad"
                 x="77.8"
                 y="47.2"
                 fill="#888E8A"
                 width="4"
                 height="1" /></g><g
               transform="matrix(0, -1, 1, 0, 16.8973, 61.4296)"
               id="g136"><rect
                 id="connector45pad"
                 x="63.1"
                 y="17.8"
                 fill="#888E8A"
                 width="4"
                 height="1" /></g><g
               transform="matrix(0, -1, 1, 0, -13.0422, 49.9153)"
               id="g139"><rect
                 id="connector27pad"
                 x="32"
                 y="56.9"
                 fill="#888E8A"
                 width="4"
                 height="1" /></g><g
               transform="matrix(0, -1, 1, 0, -20.4123, 57.2854)"
               id="g142"><rect
                 id="connector31pad"
                 x="39.4"
                 y="71.6"
                 fill="#888E8A"
                 width="4"
                 height="1" /></g><g
               transform="matrix(0, 1, -1, 0, 79.8545, 1.52788)"
               id="g145"><rect
                 id="connector35pad"
                 x="-7.2"
                 y="25.7"
                 fill="#888E8A"
                 width="4"
                 height="1" /></g><g
               transform="matrix(0, -1, 1, 0, 5.8422, 72.4846)"
               id="g148"><rect
                 id="connector39pad"
                 x="74.2"
                 y="39.9"
                 fill="#888E8A"
                 width="4"
                 height="1" /></g><g
               transform="matrix(0, -1, 1, 0, 13.2123, 65.1146)"
               id="g151"><rect
                 id="connector43pad"
                 x="66.8"
                 y="25.1"
                 fill="#888E8A"
                 width="4"
                 height="1" /></g><g
               transform="matrix(0, -1, 1, 0, -7.51464, 44.3877)"
               id="g154"><rect
                 id="connector24pad"
                 x="26.5"
                 y="45.8"
                 fill="#888E8A"
                 width="4"
                 height="1" /></g><g
               transform="matrix(0, -1, 1, 0, -11.1997, 48.0727)"
               id="g157"><rect
                 id="connector26pad"
                 x="30.2"
                 y="53.3"
                 fill="#888E8A"
                 width="4"
                 height="1" /></g><g
               transform="matrix(0, -1, 1, 0, -14.8847, 51.7578)"
               id="g160"><rect
                 id="connector28pad"
                 x="33.9"
                 y="60.6"
                 fill="#888E8A"
                 width="4"
                 height="1" /></g><g
               transform="matrix(0, -1, 1, 0, -18.5697, 55.4428)"
               id="g163"><rect
                 id="connector30pad"
                 x="37.6"
                 y="68"
                 fill="#888E8A"
                 width="4"
                 height="1" /></g><g
               transform="matrix(0, -1, 1, 0, -22.2548, 59.1278)"
               id="g166"><rect
                 id="connector32pad"
                 x="41.3"
                 y="75.4"
                 fill="#888E8A"
                 width="4"
                 height="1" /></g><g
               transform="matrix(0, 1, -1, 0, 81.6977, 3.37039)"
               id="g169"><rect
                 id="connector34pad"
                 x="-9"
                 y="25.8"
                 fill="#888E8A"
                 width="4"
                 height="1" /></g><g
               transform="matrix(0, -1, 1, 0, 0.314646, 78.012)"
               id="g172"><rect
                 id="connector36pad"
                 x="79.7"
                 y="50.9"
                 fill="#888E8A"
                 width="4"
                 height="1" /></g><g
               transform="matrix(0, -1, 1, 0, 3.99969, 74.327)"
               id="g175"><rect
                 id="connector38pad"
                 x="76"
                 y="43.6"
                 fill="#888E8A"
                 width="4"
                 height="1" /></g><g
               transform="matrix(0, -1, 1, 0, 7.6847, 70.6422)"
               id="g178"><rect
                 id="connector40pad"
                 x="72.3"
                 y="36.2"
                 fill="#888E8A"
                 width="4"
                 height="1" /></g><g
               transform="matrix(0, -1, 1, 0, 11.3697, 66.9572)"
               id="g181"><rect
                 id="connector42pad"
                 x="68.6"
                 y="28.8"
                 fill="#888E8A"
                 width="4"
                 height="1" /></g><g
               transform="matrix(0, -1, 1, 0, 15.0548, 63.2722)"
               id="g184"><rect
                 id="connector44pad"
                 x="64.9"
                 y="21.4"
                 fill="#888E8A"
                 width="4"
                 height="1" /></g><g
               transform="matrix(0, -1, 1, 0, -3.82961, 40.7027)"
               id="g187"><rect
                 id="connector22pad"
                 x="22.8"
                 y="38.5"
                 fill="#888E8A"
                 width="4"
                 height="1" /></g><g
               transform="matrix(0, -1, 1, 0, -5.67212, 42.5452)"
               id="g190"><rect
                 id="connector23pad"
                 x="24.7"
                 y="42.2"
                 fill="#888E8A"
                 width="4"
                 height="1" /></g></g><g
             id="g193"><g
               id="g195"><g
                 id="g197"><g
                   id="_x30_.1.12.0.0.0.0.8_1_"><rect
                     id="_x30_.1.12.0.0.0.0.8.0_1_"
                     x="37.5"
                     y="-5.8"
                     transform="matrix(2.578893e-06 1 -1 2.578893e-06 51.6955 -39.2016)"
                     fill="#303030"
                     width="15.9"
                     height="24.1" /></g></g></g></g><polygon
             id="_x30_.1.12.0.0.0.0.9_1_"
             fill="#1F1F1F"
             points="57.6,14.2 33.5,14.2 34.2,13.3 56.7,13.3     " /><polygon
             id="_x30_.1.12.0.0.0.0.10_1_"
             fill="#1F1F1F"
             points="57.6,-1.7 33.5,-1.7 34.2,-0.7 56.7,-0.7     " /><polygon
             id="_x30_.1.12.0.0.0.0.11_1_"
             points="57.6,14.2 57.6,-1.7 56.7,-0.7 56.7,13.3     " /><polygon
             id="_x30_.1.12.0.0.0.0.12_1_"
             fill="#3D3D3D"
             points="33.5,14.2 33.5,-1.7 34.2,-0.7 34.2,13.3     " /></g></g><rect
         x="21.7"
         y="20.4"
         fill="#333333"
         width="14.2"
         height="24.1"
         id="rect205" /><circle
         id="connector6pin"
         fill="none"
         stroke="#9A916C"
         stroke-width="1.224"
         cx="7.2"
         cy="54"
         r="2.1" /><path
         fill="#9A916C"
         d="M2.5,51.9h9.4v4.1H2.5V51.9 M5.1,54c0,1.1,0.9,2.1,2.1,2.1s2.1-0.9,2.1-2.1c0,0,0,0,0,0    c0-1.1-0.9-2.1-2.1-2.1S5.1,52.9,5.1,54C5.1,54,5.1,54,5.1,54z"
         id="path208" /><circle
         id="connector7pin"
         fill="none"
         stroke="#9A916C"
         stroke-width="1.224"
         cx="7.2"
         cy="46.8"
         r="2.1" /><path
         fill="#9A916C"
         d="M2.5,44.7h9.4v4.1H2.5V44.7 M5.1,46.8c0,1.1,0.9,2.1,2.1,2.1s2.1-0.9,2.1-2.1c0,0,0,0,0,0    c0-1.1-0.9-2.1-2.1-2.1S5.1,45.7,5.1,46.8C5.1,46.8,5.1,46.8,5.1,46.8z"
         id="path211" /><circle
         id="connector8pin"
         fill="none"
         stroke="#9A916C"
         stroke-width="1.224"
         cx="7.2"
         cy="39.6"
         r="2.1" /><path
         fill="#9A916C"
         d="M2.5,37.5h9.4v4.1H2.5V37.5 M5.1,39.6c0,1.1,0.9,2.1,2.1,2.1s2.1-0.9,2.1-2.1c0,0,0,0,0,0    c0-1.1-0.9-2.1-2.1-2.1S5.1,38.5,5.1,39.6C5.1,39.6,5.1,39.6,5.1,39.6z"
         id="path214" /><circle
         id="connector9pin"
         fill="none"
         stroke="#9A916C"
         stroke-width="1.224"
         cx="7.2"
         cy="32.4"
         r="2.1" /><path
         fill="#9A916C"
         d="M2.5,30.3h9.4v4.1H2.5V30.3 M5.1,32.4c0,1.1,0.9,2.1,2.1,2.1s2.1-0.9,2.1-2.1c0,0,0,0,0,0    c0-1.1-0.9-2.1-2.1-2.1S5.1,31.3,5.1,32.4C5.1,32.4,5.1,32.4,5.1,32.4z"
         id="path217" /><circle
         id="connector10pin"
         fill="none"
         stroke="#9A916C"
         stroke-width="1.224"
         cx="7.2"
         cy="25.2"
         r="2.1" /><path
         fill="#9A916C"
         d="M2.5,23.1h9.4v4.1H2.5V23.1 M5.1,25.2c0,1.1,0.9,2.1,2.1,2.1s2.1-0.9,2.1-2.1c0,0,0,0,0,0    c0-1.1-0.9-2.1-2.1-2.1S5.1,24.1,5.1,25.2C5.1,25.2,5.1,25.2,5.1,25.2z"
         id="path220" /><circle
         id="connector11pin"
         fill="none"
         stroke="#9A916C"
         stroke-width="1.224"
         cx="7.2"
         cy="18"
         r="2.1" /><path
         fill="#9A916C"
         d="M2.5,15.9h9.4v4.1H2.5V15.9 M5.1,18c0,1.1,0.9,2.1,2.1,2.1s2.1-0.9,2.1-2.1c0,0,0,0,0,0    c0-1.1-0.9-2.1-2.1-2.1C6.1,15.9,5.1,16.9,5.1,18C5.1,18,5.1,18,5.1,18z"
         id="path223" /><circle
         id="connector12pin"
         fill="none"
         stroke="#9A916C"
         stroke-width="1.224"
         cx="7.2"
         cy="10.8"
         r="2.1" /><path
         fill="#9A916C"
         d="M2.5,8.7h9.4v4.1H2.5V8.7 M5.1,10.8c0,1.1,0.9,2.1,2.1,2.1c1.1,0,2.1-0.9,2.1-2.1c0,0,0,0,0,0    c0-1.1-0.9-2.1-2.1-2.1C6.1,8.7,5.1,9.7,5.1,10.8C5.1,10.8,5.1,10.8,5.1,10.8z"
         id="path226" /><circle
         id="connector13pin"
         fill="none"
         stroke="#9A916C"
         stroke-width="1.224"
         cx="7.2"
         cy="3.6"
         r="2.1" /><path
         fill="#9A916C"
         d="M2.5,1.5h9.4v4.1H2.5V1.5 M5.1,3.6c0,1.1,0.9,2.1,2.1,2.1c1.1,0,2.1-0.9,2.1-2.1c0,0,0,0,0,0    c0-1.1-0.9-2.1-2.1-2.1C6.1,1.5,5.1,2.5,5.1,3.6C5.1,3.6,5.1,3.6,5.1,3.6z"
         id="path229" /><circle
         id="connector14pin"
         fill="none"
         stroke="#9A916C"
         stroke-width="1.224"
         cx="50.4"
         cy="3.6"
         r="2.1" /><path
         fill="#9A916C"
         d="M45.7,1.5h9.4v4.1h-9.4V1.5 M48.3,3.6c0,1.1,0.9,2.1,2.1,2.1c1.1,0,2.1-0.9,2.1-2.1c0,0,0,0,0,0    c0-1.1-0.9-2.1-2.1-2.1C49.3,1.5,48.3,2.5,48.3,3.6C48.3,3.6,48.3,3.6,48.3,3.6z"
         id="path232" /><circle
         id="connector15pin"
         fill="none"
         stroke="#9A916C"
         stroke-width="1.224"
         cx="50.4"
         cy="10.8"
         r="2.1" /><path
         fill="#9A916C"
         d="M45.7,8.7h9.4v4.1h-9.4V8.7 M48.3,10.8c0,1.1,0.9,2.1,2.1,2.1c1.1,0,2.1-0.9,2.1-2.1c0,0,0,0,0,0    c0-1.1-0.9-2.1-2.1-2.1C49.3,8.7,48.3,9.7,48.3,10.8C48.3,10.8,48.3,10.8,48.3,10.8z"
         id="path235" /><circle
         id="connector16pin"
         fill="none"
         stroke="#9A916C"
         stroke-width="1.224"
         cx="50.4"
         cy="18"
         r="2.1" /><path
         fill="#9A916C"
         d="M45.7,15.9h9.4v4.1h-9.4V15.9 M48.3,18c0,1.1,0.9,2.1,2.1,2.1s2.1-0.9,2.1-2.1c0,0,0,0,0,0    c0-1.1-0.9-2.1-2.1-2.1C49.3,15.9,48.3,16.9,48.3,18C48.3,18,48.3,18,48.3,18z"
         id="path238" /><circle
         id="connector17pin"
         fill="none"
         stroke="#9A916C"
         stroke-width="1.224"
         cx="50.4"
         cy="25.2"
         r="2.1" /><path
         fill="#9A916C"
         d="M45.7,23.1h9.4v4.1h-9.4V23.1 M48.3,25.2c0,1.1,0.9,2.1,2.1,2.1s2.1-0.9,2.1-2.1c0,0,0,0,0,0    c0-1.1-0.9-2.1-2.1-2.1S48.3,24.1,48.3,25.2C48.3,25.2,48.3,25.2,48.3,25.2z"
         id="path241" /><circle
         id="connector18pin"
         fill="none"
         stroke="#9A916C"
         stroke-width="1.224"
         cx="50.4"
         cy="32.4"
         r="2.1" /><path
         fill="#9A916C"
         d="M45.7,30.3h9.4v4.1h-9.4V30.3 M48.3,32.4c0,1.1,0.9,2.1,2.1,2.1s2.1-0.9,2.1-2.1c0,0,0,0,0,0    c0-1.1-0.9-2.1-2.1-2.1S48.3,31.3,48.3,32.4C48.3,32.4,48.3,32.4,48.3,32.4z"
         id="path244" /><circle
         id="connector19pin"
         fill="none"
         stroke="#9A916C"
         stroke-width="1.224"
         cx="50.4"
         cy="39.6"
         r="2.1" /><path
         fill="#9A916C"
         d="M45.7,37.5h9.4v4.1h-9.4V37.5 M48.3,39.6c0,1.1,0.9,2.1,2.1,2.1s2.1-0.9,2.1-2.1c0,0,0,0,0,0    c0-1.1-0.9-2.1-2.1-2.1S48.3,38.5,48.3,39.6C48.3,39.6,48.3,39.6,48.3,39.6z"
         id="path247" /><circle
         id="connector20pin"
         fill="none"
         stroke="#9A916C"
         stroke-width="1.224"
         cx="50.4"
         cy="46.8"
         r="2.1" /><path
         fill="#9A916C"
         d="M45.7,44.7h9.4v4.1h-9.4V44.7 M48.3,46.8c0,1.1,0.9,2.1,2.1,2.1s2.1-0.9,2.1-2.1c0,0,0,0,0,0    c0-1.1-0.9-2.1-2.1-2.1S48.3,45.7,48.3,46.8C48.3,46.8,48.3,46.8,48.3,46.8z"
         id="path250" /><circle
         id="connector21pin"
         fill="none"
         stroke="#9A916C"
         stroke-width="1.224"
         cx="50.4"
         cy="54"
         r="2.1" /><path
         fill="#9A916C"
         d="M45.7,51.9h9.4v4.1h-9.4V51.9 M48.3,54c0,1.1,0.9,2.1,2.1,2.1s2.1-0.9,2.1-2.1c0,0,0,0,0,0    c0-1.1-0.9-2.1-2.1-2.1S48.3,52.9,48.3,54C48.3,54,48.3,54,48.3,54z"
         id="path253" /></g><g
       id="_x30_402-cap_1_"
       transform="matrix(1, 0, 0, 1, 30.9942, 15.747)"><g
         id="_x30_402-cap"
         transform="matrix(1, 0, 0, 1, 10.275, 76.1789)"><g
           transform="matrix(0, 1, -1, 0, 4.1105, -1.5595)"
           id="g257"><g
             id="g259"><g
               id="g261"><rect
                 x="-75.4"
                 y="11.7"
                 transform="matrix(2.578893e-06 1 -1 2.578893e-06 -59.6506 85.522)"
                 fill="#534741"
                 width="5.7"
                 height="2.6"
                 id="rect263" /><rect
                 x="-74.2"
                 y="12.9"
                 transform="matrix(2.578893e-06 1 -1 2.578893e-06 -58.3823 84.2555)"
                 opacity="0.2"
                 enable-background="new    "
                 width="5.7"
                 height="0"
                 id="rect265" /><rect
                 x="-76.7"
                 y="12.9"
                 transform="matrix(2.578893e-06 1 -1 2.578893e-06 -60.9143 86.7871)"
                 opacity="0.2"
                 fill="#FFFFFF"
                 enable-background="new    "
                 width="5.7"
                 height="0"
                 id="rect267" /></g><g
               id="g269"><path
                 fill="#DCDCDC"
                 d="M-73.9,10.9L-73.9,10.9L-73.9,10.9L-73.9,10.9L-73.9,10.9c0.2,0.1,0.8,0.2,1,0.2c0.2,0,1.4,0,1.6-0.1        v-0.9h-2.6V10.9z"
                 id="path271" /><path
                 fill="#DCDCDC"
                 d="M-73.8,14.9L-73.8,14.9l-0.1,0.9h2.6v-0.9c-0.2-0.1-1.4-0.1-1.6-0.1C-73.1,14.7-73.6,14.8-73.8,14.9z"
                 id="path273" /><rect
                 x="-71.8"
                 y="15.3"
                 transform="matrix(2.578893e-06 1 -1 2.578893e-06 -55.996 86.6512)"
                 opacity="0.15"
                 enable-background="new    "
                 width="0.9"
                 height="0"
                 id="rect275" /><rect
                 x="-74.3"
                 y="15.3"
                 transform="matrix(2.578893e-06 1 -1 2.578893e-06 -58.5228 89.1778)"
                 opacity="0.5"
                 fill="#FFFFFF"
                 enable-background="new    "
                 width="0.9"
                 height="0"
                 id="rect277" /><path
                 fill="#D1C690"
                 d="M-71.3,10.1V11"
                 id="path279" /><rect
                 x="-71.8"
                 y="10.5"
                 transform="matrix(2.578893e-06 1 -1 2.578893e-06 -60.7792 81.868)"
                 opacity="0.15"
                 enable-background="new    "
                 width="0.9"
                 height="0"
                 id="rect281" /><rect
                 x="-74.3"
                 y="10.5"
                 transform="matrix(2.578893e-06 1 -1 2.578893e-06 -63.3069 84.3956)"
                 opacity="0.5"
                 fill="#FFFFFF"
                 enable-background="new    "
                 width="0.9"
                 height="0"
                 id="rect283" /><line
                 fill="none"
                 x1="-71.3"
                 y1="15.2"
                 x2="-71.3"
                 y2="15.2"
                 id="line285" /></g></g></g></g><rect
         x="4.2"
         y="0.8"
         opacity="0.1"
         enable-background="new    "
         width="0.1"
         height="2.5"
         id="rect287" /><rect
         x="-1.4"
         y="0.8"
         opacity="0.2"
         fill="#FFFFFF"
         enable-background="new    "
         width="0.1"
         height="2.5"
         id="rect289" /></g><g
       id="_x30_402-cap_3_"
       transform="matrix(1, 0, 0, 1, 24.0468, 14.583)"><g
         transform="matrix(-1, 0, 0, -1, 2.559, 5.67)"
         id="g292"><g
           id="_x30_402-cap_2_"
           transform="matrix(1, 0, 0, 1, 10.275, 76.1789)"><g
             transform="matrix(0, 1, -1, 0, 4.1105, -1.5595)"
             id="g295"><g
               id="g297"><g
                 id="g299"><rect
                   x="-75"
                   y="11.6"
                   transform="matrix(-2.547107e-06 -1 1 -2.547107e-06 -85.0708 -59.2231)"
                   fill="#534741"
                   width="5.7"
                   height="2.6"
                   id="rect301" /><rect
                   x="-76.2"
                   y="12.9"
                   transform="matrix(-2.547107e-06 -1 1 -2.547107e-06 -86.3374 -60.4914)"
                   opacity="0.2"
                   enable-background="new    "
                   width="5.7"
                   height="0"
                   id="rect303" /><rect
                   x="-73.7"
                   y="12.9"
                   transform="matrix(-2.547107e-06 -1 1 -2.547107e-06 -83.8057 -57.9594)"
                   opacity="0.2"
                   fill="#FFFFFF"
                   enable-background="new    "
                   width="5.7"
                   height="0"
                   id="rect305" /></g><g
                 id="g307"><path
                   fill="#DCDCDC"
                   d="M-70.9,14.9L-70.9,14.9L-70.9,14.9L-70.9,14.9L-70.9,14.9c-0.2-0.1-0.8-0.2-1-0.2         c-0.2,0-1.4,0-1.6,0.1v0.9h2.6V14.9z"
                   id="path309" /><path
                   fill="#DCDCDC"
                   d="M-70.9,11L-70.9,11l0.1-0.9h-2.6V11c0.2,0.1,1.4,0.1,1.6,0.1C-71.6,11.1-71.1,11.1-70.9,11z"
                   id="path311" /><rect
                   x="-73.9"
                   y="10.5"
                   transform="matrix(-2.547107e-06 -1 1 -2.547107e-06 -83.9416 -62.8777)"
                   opacity="0.15"
                   enable-background="new    "
                   width="0.9"
                   height="0"
                   id="rect313" /><rect
                   x="-71.3"
                   y="10.5"
                   transform="matrix(-2.547107e-06 -1 1 -2.547107e-06 -81.415 -60.3509)"
                   opacity="0.5"
                   fill="#FFFFFF"
                   enable-background="new    "
                   width="0.9"
                   height="0"
                   id="rect315" /><path
                   fill="#D1C690"
                   d="M-73.4,15.8v-0.9"
                   id="path317" /><rect
                   x="-73.9"
                   y="15.3"
                   transform="matrix(-2.547107e-06 -1 1 -2.547107e-06 -88.7248 -58.0945)"
                   opacity="0.15"
                   enable-background="new    "
                   width="0.9"
                   height="0"
                   id="rect319" /><rect
                   x="-71.3"
                   y="15.3"
                   transform="matrix(-2.547107e-06 -1 1 -2.547107e-06 -86.1972 -55.5667)"
                   opacity="0.5"
                   fill="#FFFFFF"
                   enable-background="new    "
                   width="0.9"
                   height="0"
                   id="rect321" /><line
                   fill="none"
                   x1="-73.4"
                   y1="10.6"
                   x2="-73.4"
                   y2="10.6"
                   id="line323" /></g></g></g></g><rect
           x="-1.4"
           y="1.2"
           opacity="0.1"
           enable-background="new    "
           width="0.1"
           height="2.5"
           id="rect325" /><rect
           x="4.2"
           y="1.2"
           opacity="0.2"
           fill="#FFFFFF"
           enable-background="new    "
           width="0.1"
           height="2.5"
           id="rect327" /></g></g></g></svg>